<svg class="w-28" xmlns="http://www.w3.org/2000/svg" fill="none" viewBox="0 0 144 58"><path fill="#fff" d="M0 1.3h13.7C22.2 1.3 29 8.1 29 16.7c0 8.5-6.8 15.5-15.3 15.5h-6v13.3H0V1.3Zm13.7 23.5c4.2 0 7.7-3.3 7.7-8 0-4.8-3.5-8.3-7.7-8.3h-6v16.4h6Zm48.1 7.3v-21h7.7v21.4c0 4.3 2.8 6.6 7 6.6s6.8-2.6 6.8-6.6V11H91v21.1c0 8.5-6.1 14.3-14.6 14.3s-14.6-5.8-14.6-14.3Z"></path><path fill="#61C07E" d="M135 41.7c0-2.5 2-4.5 4.5-4.5s4.5 2 4.5 4.5a4.5 4.5 0 0 1-2.7 4.3 4.4 4.4 0 0 1-6-2.5l-.2-1.8Z"></path><path fill="#fff" d="M43.9 39.3V36c-2.3 1-4.9 1.5-7.4 1.4v2.9c0 2.1.6 3.8 1.8 5a6.6 6.6 0 0 0 5 2h9.6v-6.5h-7.6c-1 0-1.4-.5-1.4-1.6Zm10-36A10 10 0 0 0 46 0c-2.9 0-5.2.8-7 2.5-1.7 1.6-2.6 4-2.6 7.2v16.7c-2 .3-4 .4-6 .4H30v6.7h.4a68.8 68.8 0 0 0 6-.3c5-.4 7.4-1.7 7.4-1.7 4.3-1.5 7.5-3.9 9.6-7 2.2-3.2 3.3-7.3 3.3-12 0-3.8-1-6.9-2.9-9.1ZM48 20c-1 1.9-2.4 3.3-4.3 4.3V9.1c0-1 .2-1.6.6-2 .3-.5.9-.8 1.7-.8 1 0 1.8.5 2.5 1.5s1 2.5 1 4.5c0 3.2-.4 5.8-1.5 7.7Zm82 22.4c0 5-1.4 9-4.2 11.6-2.8 2.6-7 4-12.4 4-2.7 0-5-.3-6.8-.9-1.7-.4-3.3-1.2-4.7-2.3a10.3 10.3 0 0 1-3.8-8h8a5.3 5.3 0 0 0 2.6 3.4l2.2.8 2.6.2c2.9 0 5-.7 6.4-2.2 1.5-1.4 2.2-3.7 2.2-6.7v-3.6c-1 1.6-2.4 2.8-4 3.6-2 1-4.2 1.4-6.4 1.3a15 15 0 0 1-11.5-4.8 17.5 17.5 0 0 1-3.2-18.4 14.9 14.9 0 0 1 8.3-8.8c2-.9 4.3-1.3 6.5-1.2 2.5 0 4.5.4 6.2 1.3 1.7.8 3 2 4 3.6V11h8v31.4Zm-26-15.2a8.5 8.5 0 0 0 5.3 8.3 9.6 9.6 0 0 0 7.2 0 8.6 8.6 0 0 0 4.6-4c.5-1 .8-2.1 1-3.3v-2.4a8.5 8.5 0 0 0-5.7-7.3 9.6 9.6 0 0 0-7 .1 8.3 8.3 0 0 0-4.8 5c-.4 1.1-.6 2.3-.6 3.6Z"></path></svg>
