<?xml version="1.0" encoding="UTF-8" standalone="no"?>
<svg
   style="width:100%;height:auto;font-size:80%;font-family:inherit;margin:10px 0 10px 0;"
   class="pikchr"
   viewBox="0 0 148.32 132.628"
   version="1.1"
   id="svg2"
   sodipodi:docname="plugHex.svg"
   inkscape:version="1.3-beta (cedbd6c, 2023-05-28)"
   inkscape:export-filename="plugHex.png"
   inkscape:export-xdpi="517.79932"
   inkscape:export-ydpi="517.79932"
   xmlns:inkscape="http://www.inkscape.org/namespaces/inkscape"
   xmlns:sodipodi="http://sodipodi.sourceforge.net/DTD/sodipodi-0.dtd"
   xmlns="http://www.w3.org/2000/svg"
   xmlns:svg="http://www.w3.org/2000/svg">
  <defs
     id="defs2">
    <linearGradient
       id="gradientFill-1"
       x1="0.74144253"
       x2="590.86259"
       y1="3.6658269"
       y2="593.78698"
       gradientUnits="userSpaceOnUse"
       spreadMethod="pad"
       gradientTransform="matrix(0.07493651,0,0,0.0501871,43.665739,12.867365)">
      <stop
         offset="0"
         stop-color="rgb(203,206,208)"
         stop-opacity="1"
         id="stop1" />
      <stop
         offset="1"
         stop-color="rgb(132,131,139)"
         stop-opacity="1"
         id="stop2" />
    </linearGradient>
    <linearGradient
       id="gradientFill-2"
       x1="301.02603"
       x2="703.06751"
       y1="151.40061"
       y2="553.44209"
       gradientUnits="userSpaceOnUse"
       spreadMethod="pad"
       gradientTransform="matrix(0.06070926,0,0,0.06194847,43.665739,12.867365)">
      <stop
         offset="0"
         stop-color="rgb(39,109,195)"
         stop-opacity="1"
         id="stop3" />
      <stop
         offset="1"
         stop-color="rgb(22,92,170)"
         stop-opacity="1"
         id="stop4" />
    </linearGradient>
  </defs>
  <sodipodi:namedview
     id="namedview2"
     pagecolor="#ffffff"
     bordercolor="#000000"
     borderopacity="0.25"
     inkscape:showpageshadow="2"
     inkscape:pageopacity="0.0"
     inkscape:pagecheckerboard="0"
     inkscape:deskcolor="#d1d1d1"
     inkscape:zoom="5.03294"
     inkscape:cx="29.604963"
     inkscape:cy="65.170656"
     inkscape:window-width="1743"
     inkscape:window-height="1005"
     inkscape:window-x="57"
     inkscape:window-y="108"
     inkscape:window-maximized="0"
     inkscape:current-layer="svg2" />
  <path
     d="M110.16,2.16L146.16,64.5138L2.16,64.5138L38.16,2.16Z"
     style="fill:rgb(255,255,255);stroke-width:2.16;stroke-linejoin:round;stroke:rgb(97,192,126);"
     id="path1" />
  <text
     lengthAdjust="spacingAndGlyphs"
     x="74.16"
     y="33.3369"
     text-anchor="middle"
     fill="rgb(97,192,126)"
     dominant-baseline="central"
     id="text1" />
  <path
     d="M146.16,68.1138L110.16,130.468L38.16,130.468L2.16,68.1138Z"
     style="fill:#1e64b6;stroke-width:2.16;stroke-linejoin:round;stroke:#1e64b6;fill-opacity:1"
     id="path2" />
  <text
     x="74.16"
     y="99.2907"
     text-anchor="middle"
     fill="rgb(255,255,255)"
     dominant-baseline="central"
     id="text2" />
  <path
     fill="#ffffff"
     d="m 39.662667,86.483791 h 6.61145 c 4.101994,0 7.38359,3.2816 7.38359,7.43185 0,4.102 -3.281596,7.480109 -7.38359,7.480109 h -2.895526 v 6.41842 h -3.715924 z m 6.61145,11.34081 c 2.026868,0 3.715924,-1.59254 3.715924,-3.8607 0,-2.31642 -1.689056,-4.00547 -3.715924,-4.00547 h -2.895526 v 7.91443 h 2.895526 z M 69.48658,101.34749 V 91.213151 h 3.715924 v 10.327379 c 0,2.07512 1.351245,3.18507 3.378113,3.18507 2.026868,0 3.281596,-1.25472 3.281596,-3.18507 V 91.164891 h 3.715924 v 10.182599 c 0,4.102 -2.943784,6.901 -7.045779,6.901 -4.101994,0 -7.045778,-2.799 -7.045778,-6.901 z"
     id="path1-4"
     style="stroke-width:0.482588" />
  <path
     fill="#61c07e"
     d="m 104.81199,105.98033 c 0,-1.20647 0.96518,-2.17164 2.17165,-2.17164 1.20647,0 2.17164,0.96517 2.17164,2.17164 a 2.1716441,2.1716441 0 0 1 -1.30298,2.07513 2.1233854,2.1233854 0 0 1 -2.89553,-1.20647 l -0.0965,-0.86866 z"
     id="path2-8"
     style="fill:#61c07e;stroke-width:0.482588;fill-opacity:1" />
  <path
     fill="#ffffff"
     d="m 60.848262,104.82212 v -1.59254 c -1.109951,0.48259 -2.364679,0.72388 -3.571148,0.67563 v 1.3995 c 0,1.01343 0.289552,1.83383 0.868657,2.41294 a 3.1850781,3.1850781 0 0 0 2.412938,0.96517 H 65.19155 V 105.546 h -3.667665 c -0.482588,0 -0.675623,-0.24129 -0.675623,-0.77214 z m 4.825876,-17.373149 a 4.8258758,4.8258758 0 0 0 -3.812442,-1.59254 c -1.399504,0 -2.509456,0.38607 -3.378113,1.20647 -0.820399,0.77214 -1.254728,1.93035 -1.254728,3.47463 v 8.05921 c -0.965175,0.14478 -1.93035,0.19304 -2.895525,0.19304 h -0.193035 v 3.233329 h 0.193035 a 33.202026,33.202026 0 0 0 2.895525,-0.14477 c 2.412938,-0.19304 3.571148,-0.8204 3.571148,-0.8204 2.075127,-0.72388 3.619407,-1.882089 4.632841,-3.378109 1.061693,-1.54428 1.592539,-3.52289 1.592539,-5.79105 0,-1.83384 -0.482588,-3.32986 -1.399504,-4.39155 z m -2.847267,8.05921 c -0.482588,0.91692 -1.15821,1.59254 -2.075127,2.07513 v -7.33533 c 0,-0.48259 0.09652,-0.77214 0.289553,-0.96518 0.144776,-0.24129 0.434329,-0.38607 0.820399,-0.38607 0.482587,0 0.868658,0.2413 1.206469,0.72388 0.337811,0.48259 0.482587,1.20647 0.482587,2.17165 0,1.54428 -0.193035,2.79901 -0.723881,3.71592 z m 39.572179,10.809959 c 0,2.41294 -0.67562,4.34329 -2.02686,5.59802 -1.35125,1.25473 -3.378118,1.93035 -5.984091,1.93035 -1.302986,0 -2.412938,-0.14478 -3.281596,-0.43433 -0.820398,-0.19303 -1.592539,-0.5791 -2.268161,-1.10995 a 4.9706521,4.9706521 0 0 1 -1.833833,-3.8607 h 3.860701 a 2.5577142,2.5577142 0 0 0 1.254727,1.6408 l 1.061693,0.38607 1.254728,0.0965 c 1.399504,0 2.412938,-0.33781 3.08856,-1.06169 0.723882,-0.67562 1.061693,-1.78557 1.061693,-3.23334 v -1.73731 c -0.482588,0.77214 -1.15821,1.35124 -1.93035,1.73731 -0.965175,0.48259 -2.026868,0.67563 -3.088561,0.62737 a 7.2388138,7.2388138 0 0 1 -5.549757,-2.31642 8.4452827,8.4452827 0 0 1 -1.54428,-8.879609 7.190555,7.190555 0 0 1 4.005477,-4.24677 c 0.965175,-0.43433 2.075126,-0.62737 3.136819,-0.57911 1.206469,0 2.171644,0.19304 2.992043,0.62737 0.820399,0.38607 1.447763,0.96517 1.93035,1.73731 v -2.07513 h 3.860698 z M 89.851776,98.982811 a 4.1019945,4.1019945 0 0 0 2.557714,4.005479 4.6328408,4.6328408 0 0 0 3.474631,0 4.1502532,4.1502532 0 0 0 2.219902,-1.93035 c 0.241294,-0.48259 0.386071,-1.01343 0.482588,-1.592539 v -1.15821 a 4.1019945,4.1019945 0 0 0 -2.750749,-3.52289 4.6328408,4.6328408 0 0 0 -3.378113,0.0483 4.0054769,4.0054769 0 0 0 -2.316421,2.41294 c -0.193035,0.53084 -0.289552,1.10995 -0.289552,1.73731 z"
     id="path3"
     style="stroke-width:0.482588" />
  <g
     id="g3"
     transform="translate(2.327891,3.235051)">
    <path
       d="m 65.832107,42.667809 c -12.211424,0 -22.110808,-6.629865 -22.110808,-14.808201 0,-8.178399 9.899384,-14.808263 22.110808,-14.808263 12.211491,0 22.110812,6.629864 22.110812,14.808263 0,8.178336 -9.899321,14.808201 -22.110812,14.808201 z m 3.384449,-23.826948 c -9.281772,0 -16.806136,4.532462 -16.806136,10.12353 0,5.591065 7.524364,10.123527 16.806136,10.123527 9.28171,0 16.131482,-3.098725 16.131482,-10.123527 0,-7.022596 -6.849772,-10.12353 -16.131482,-10.12353 z"
       fill="url(#gradientFill-1)"
       fill-rule="evenodd"
       id="path4"
       style="fill:url(#gradientFill-1);stroke-width:0.0613258" />
    <path
       d="m 77.394897,35.987167 c 0,0 1.33825,0.40383 2.115733,0.797233 0.269772,0.136508 0.736525,0.408922 1.073194,0.766575 0.329811,0.350292 0.490613,0.705246 0.490613,0.705246 l 5.274019,8.892232 -8.524287,0.0039 -3.986174,-7.485542 c 0,0 -0.816236,-1.402459 -1.3185,-1.809108 -0.41897,-0.339194 -0.597614,-0.459946 -1.011868,-0.459946 -0.288358,0 -2.025348,0 -2.025348,0 l 0.0016,9.7492 -7.54306,0.0031 V 22.246443 h 15.147446 c 0,0 6.899153,0.124422 6.899153,6.688304 0,6.563878 -6.592519,7.05246 -6.592519,7.05246 z m -3.280939,-8.338828 -4.566489,-0.0031 -0.0016,4.234541 4.568769,-0.0013 c 0,0 2.115748,-0.0065 2.115748,-2.154063 0,-2.19068 -2.115748,-2.076063 -2.115748,-2.076063 z"
       fill="url(#gradientFill-2)"
       fill-rule="evenodd"
       id="path5"
       style="fill:url(#gradientFill-2);stroke-width:0.0613258" />
  </g>
</svg>
